<svg width="800" height="600" viewBox="0 0 800 600" xmlns="http://www.w3.org/2000/svg">
  <defs>
    <linearGradient id="bg" x1="0%" y1="0%" x2="100%" y2="100%">
      <stop offset="0%" stop-color="#f8d9ff"/>
      <stop offset="100%" stop-color="#fde6ef"/>
    </linearGradient>
    <linearGradient id="hearts" x1="0%" y1="0%" x2="100%" y2="100%">
      <stop offset="0%" stop-color="#c29cf5"/>
      <stop offset="100%" stop-color="#f6acc8"/>
    </linearGradient>
  </defs>
  <rect width="800" height="600" fill="url(#bg)" rx="42"/>
  <g fill="url(#hearts)" opacity="0.65">
    <path d="M230 210c0-40 30-70 65-70 21 0 40 10 52 26 12-16 31-26 52-26 35 0 65 30 65 70 0 75-117 145-117 145S230 285 230 210z"/>
    <path d="M430 330c0-36 27-64 58-64 19 0 36 9 47 23 11-14 28-23 47-23 31 0 58 28 58 64 0 69-105 132-105 132S430 399 430 330z" transform="translate(-40 40) scale(0.9)"/>
  </g>
  <text x="50%" y="80%" text-anchor="middle" font-family="'Poppins', sans-serif" font-size="48" fill="#3d2f4d">Our World</text>
</svg>
